# xmcd
#
# Track frame offsets: 
#        150
#        17299
#        29367
#        45903
#        64861
#        83443
#        104916
#        118798
#        138687
#        155198
#        174379
#        190518
#        212665
#        230546
#        246779
#
# Disc length: 3492 seconds
#
# Revision: 3
# Processed by: cddbd v1.5.2PL0 Copyright (c) Steve Scherf et al.
# Submitted via: ExactAudioCopy v0.95a5
#
DISCID=c50da20f
DTITLE=Various Artist - Parents-Chind Music:Garden of Angels
DYEAR=2006
DGENRE=New Age
TTITLE0=Twitters and Fragrancy
TTITLE1=Sweet Dream
TTITLE2=Wonderland
TTITLE3=Philharmonic
TTITLE4=Peace and Love
TTITLE5=Clean Air
TTITLE6=Mother like Spring
TTITLE7=Velvet
TTITLE8=Bathed in Joy
TTITLE9=Brave Heart
TTITLE10=El Condor Pasa
TTITLE11=Belief
TTITLE12=Tim's Lullaby
TTITLE13=World's Wonder
TTITLE14=Around the Globe
EXTD=YEAR: 2002
EXTT0=
EXTT1=
EXTT2=
EXTT3=
EXTT4=
EXTT5=
EXTT6=
EXTT7=
EXTT8=
EXTT9=
EXTT10=
EXTT11=
EXTT12=
EXTT13=
EXTT14=
PLAYORDER=
